<?xml version="1.0" encoding="UTF-8"?>
<svg version="1.1" xmlns="http://www.w3.org/2000/svg" width="1024" height="1024">
<path d="M0,0 L8,2 L6,10 L-11,141 L-28,272 L-38,349 L-41,371 L-42,372 L-187,372 L-190,355 L-198,302 L-198,295 L-200,294 L-201,280 L-220,153 L-232,71 L-238,31 L-238,24 L-240,23 L-241,1 L-140,1 L-139,2 L-131,65 L-126,110 L-120,178 L-118,209 L-117,219 L-116,216 L-112,157 L-107,104 L-97,25 L-94,4 L-93,1 L-2,1 L0,2 Z " fill="#FA156D" transform="translate(616,264)"/>
<path d="M0,0 L27,0 L32,2 L32,10 L39,55 L40,57 L41,69 L47,107 L48,113 L58,180 L68,244 L79,316 L86,362 L86,368 L88,369 L87,372 L-10,373 L-15,372 L-16,369 L-17,348 L-20,312 L-20,304 L-53,304 L-59,372 L-160,372 L-159,358 L-144,250 L-128,133 L-127,126 L-112,18 L-109,1 L-57,1 Z M25,1 Z M-37,92 L-37,99 L-38,100 L-46,177 L-52,231 L-52,242 L-22,242 L-23,238 L-24,218 L-30,153 L-31,151 L-32,130 L-34,108 L-35,106 L-35,97 L-36,92 Z " fill="#FA156D" transform="translate(280,264)"/>
<path d="M0,0 L10,1 L20,1 L33,3 L38,7 L41,16 L39,25 L34,30 L31,30 L37,41 L41,48 L41,50 L43,50 L44,53 L41,54 L45,55 L59,56 L59,54 L67,55 L71,54 L78,55 L87,54 L91,55 L95,53 L97,55 L141,55 L150,56 L153,55 L173,55 L180,56 L200,56 L200,51 L199,47 L199,43 L201,43 L201,1 L236,1 L239,3 L237,3 L237,10 L231,11 L210,11 L211,22 L234,22 L234,31 L212,32 L210,33 L210,43 L220,43 L222,44 L230,44 L233,43 L237,44 L237,52 L236,53 L231,53 L232,55 L235,55 L239,54 L239,56 L247,55 L248,56 L258,54 L254,52 L254,2 L257,1 L272,1 L284,2 L290,5 L294,11 L294,22 L290,28 L285,32 L293,45 L296,50 L295,56 L303,58 L304,56 L315,57 L326,57 L330,58 L333,58 L332,59 L348,60 L361,61 L376,62 L383,64 L384,62 L389,63 L405,64 L407,64 L407,66 L412,65 L415,66 L428,67 L438,68 L439,70 L448,70 L453,71 L462,73 L468,77 L469,81 L468,88 L460,91 L444,94 L432,97 L422,98 L414,99 L391,100 L386,101 L349,104 L338,105 L298,107 L280,108 L262,108 L210,110 L185,110 L166,111 L126,111 L79,110 L46,110 L20,109 L4,108 L-32,107 L-41,107 L-49,106 L-61,106 L-77,104 L-112,101 L-119,100 L-139,99 L-145,97 L-145,99 L-147,99 L-147,97 L-157,97 L-165,94 L-179,91 L-188,88 L-190,83 L-190,80 L-188,80 L-188,78 L-186,78 L-186,76 L-170,70 L-155,67 L-139,66 L-120,64 L-106,63 L-95,62 L-78,61 L-64,60 L-55,59 L-50,58 L-48,59 L-37,58 L-37,53 L-38,52 L-38,11 L-54,11 L-54,2 L-53,1 L-12,1 L-10,3 L-12,3 L-11,10 L-13,11 L-28,11 L-28,55 L-29,53 L-29,56 L-27,56 L-27,58 L-15,57 L-9,57 L-2,56 L8,55 L15,56 L19,57 L27,56 L34,54 L32,53 L20,34 L10,35 L11,40 L11,52 L10,53 L2,53 L1,55 L0,53 L1,51 L-1,51 L0,44 L-1,42 L0,35 L1,3 L-1,2 Z M11,10 L10,11 L10,24 L26,24 L30,21 L30,13 L26,10 Z M265,10 L264,11 L264,24 L280,24 L284,21 L285,16 L282,11 L280,10 Z M264,33 L264,52 L264,56 L269,57 L272,57 L284,57 L286,58 L287,55 L290,53 L285,51 L276,35 L274,33 Z M200,44 Z M0,48 Z M201,53 L202,56 L208,55 L219,55 L222,53 Z M223,53 L223,55 L227,56 L230,53 Z M291,53 L293,55 L294,53 Z M290,54 Z M-35,55 L-35,58 L-32,57 L-34,57 Z M37,55 Z M69,55 Z M85,55 Z M92,55 L94,57 L94,55 Z M213,55 Z M229,55 Z M260,55 Z M164,56 Z M293,55 L289,57 L293,58 L295,57 Z M-1,57 Z M262,57 Z M320,58 Z M327,59 Z " fill="#C7C4C6" transform="translate(369,669)"/>
<path d="M0,0 L8,1 L13,4 L17,12 L18,20 L18,52 L95,52 L94,49 L94,34 L93,14 L98,16 L109,24 L122,36 L129,43 L139,56 L149,72 L157,90 L163,110 L166,128 L166,156 L163,177 L157,198 L149,216 L141,230 L132,242 L122,253 L117,258 L112,263 L110,263 L110,265 L104,269 L102,269 L105,250 L106,239 L106,204 L103,183 L97,165 L89,150 L82,141 L80,139 L74,132 L67,126 L63,124 L61,120 L53,115 L51,114 L47,110 L31,100 L13,88 L1,79 L-7,71 L-13,61 L-15,55 L-16,48 L-16,20 L-14,10 L-8,3 Z M65,124 Z " fill="#F9156D" transform="translate(754,314)"/>
<path d="M0,0 L2,2 L1,9 L1,47 L2,58 L4,59 L6,70 L13,86 L22,101 L31,111 L35,116 L43,123 L61,137 L76,147 L92,159 L99,166 L105,176 L108,186 L109,197 L109,222 L107,234 L102,241 L98,243 L86,243 L79,237 L76,230 L75,207 L75,174 L9,175 L8,176 L3,176 L5,205 L9,232 L9,235 L5,233 L-6,224 L-10,219 L-15,214 L-26,199 L-36,181 L-44,161 L-49,141 L-51,125 L-51,103 L-48,82 L-43,63 L-35,45 L-27,31 L-17,18 L-3,3 Z M6,174 Z " fill="#FA156D" transform="translate(668,342)"/>
<path d="M0,0 L1022,0 L1022,1 L6,2 L6,1024 L0,1024 Z " fill="#D0CBCC" transform="translate(2,0)"/>
<path d="M0,0 L10,1 L20,1 L33,3 L38,7 L41,16 L39,25 L34,30 L31,30 L37,41 L41,48 L41,50 L43,50 L44,53 L41,54 L45,55 L59,56 L59,54 L67,55 L71,54 L78,55 L87,54 L91,55 L95,53 L97,55 L141,55 L150,56 L153,55 L173,55 L180,56 L200,56 L200,51 L199,47 L199,43 L201,43 L201,1 L236,1 L239,3 L237,3 L237,10 L231,11 L210,11 L211,22 L234,22 L234,31 L212,32 L210,33 L210,43 L220,43 L222,44 L230,44 L233,43 L237,44 L237,52 L236,53 L231,53 L232,55 L235,55 L239,54 L239,56 L247,55 L248,56 L258,54 L254,52 L254,2 L257,1 L272,1 L284,2 L290,5 L294,11 L294,22 L290,28 L285,32 L293,45 L296,50 L295,56 L299,58 L299,59 L-39,59 L-37,58 L-37,53 L-38,52 L-38,11 L-54,11 L-54,2 L-53,1 L-12,1 L-10,3 L-12,3 L-11,10 L-13,11 L-28,11 L-28,55 L-29,53 L-29,56 L-27,56 L-27,58 L-15,57 L-9,57 L-2,56 L8,55 L15,56 L19,57 L27,56 L34,54 L32,53 L20,34 L10,35 L11,40 L11,52 L10,53 L2,53 L1,55 L0,53 L1,51 L-1,51 L0,44 L-1,42 L0,35 L1,3 L-1,2 Z M11,10 L10,11 L10,24 L26,24 L30,21 L30,13 L26,10 Z M265,10 L264,11 L264,24 L280,24 L284,21 L285,16 L282,11 L280,10 Z M264,33 L264,52 L264,56 L269,57 L272,57 L284,57 L286,58 L287,55 L290,53 L285,51 L276,35 L274,33 Z M200,44 Z M0,48 Z M201,53 L202,56 L208,55 L219,55 L222,53 Z M223,53 L223,55 L227,56 L230,53 Z M291,53 L293,55 L294,53 Z M290,54 Z M-35,55 L-35,58 L-32,57 L-34,57 Z M37,55 Z M69,55 Z M85,55 Z M92,55 L94,57 L94,55 Z M213,55 Z M229,55 Z M260,55 Z M164,56 Z M293,55 L289,57 L293,58 L295,57 Z M-1,57 Z M262,57 Z M299,57 Z " fill="#E287A9" transform="translate(369,669)"/>
<path d="M0,0 L10,1 L20,1 L33,3 L38,7 L41,16 L39,25 L34,30 L31,30 L37,41 L42,50 L42,52 L31,52 L21,35 L16,34 L16,35 L10,35 L11,40 L11,52 L10,53 L2,53 L1,55 L0,53 L1,51 L-1,51 L0,44 L-1,42 L0,35 L1,3 L-1,2 Z M11,10 L10,11 L10,24 L26,24 L30,21 L30,13 L26,10 Z M0,48 Z " fill="#F81463" transform="translate(369,669)"/>
<path d="M0,0 L17,0 L29,1 L35,4 L39,10 L39,21 L35,27 L30,31 L38,44 L40,48 L40,51 L30,51 L22,37 L19,33 L9,32 L10,51 L-1,51 L-1,1 Z M10,9 L9,10 L9,23 L25,23 L29,20 L30,15 L27,10 L25,9 Z " fill="#F81665" transform="translate(624,670)"/>
<path d="M0,0 L13,0 L21,4 L28,12 L31,24 L30,35 L26,44 L18,51 L13,53 L1,53 L-8,49 L-15,41 L-17,41 L-18,24 L-16,15 L-11,7 L-3,1 Z M5,8 L-2,11 L-6,16 L-8,23 L-8,30 L-5,39 L-1,43 L2,44 L12,44 L18,39 L20,35 L21,25 L19,16 L14,10 Z " fill="#F91965" transform="translate(276,670)"/>
<path d="M0,0 L30,0 L36,1 L36,9 L31,10 L10,10 L10,20 L20,21 L32,21 L33,26 L32,30 L9,30 L10,43 L35,42 L36,44 L36,51 L30,53 L0,52 L-1,51 L-1,2 L-4,1 Z " fill="#F81463" transform="translate(428,670)"/>
<path d="M0,0 L13,0 L21,4 L25,9 L26,17 L17,17 L14,11 L8,9 L0,10 L-2,16 L-2,18 L14,22 L23,26 L27,32 L28,38 L25,46 L20,51 L14,53 L2,53 L-8,49 L-12,44 L-15,36 L-5,35 L-2,41 L2,43 L13,43 L16,41 L16,35 L11,32 L-4,28 L-11,23 L-13,14 L-11,8 L-7,2 Z " fill="#F81864" transform="translate(527,670)"/>
<path d="M0,0 L28,0 L36,1 L36,10 L10,10 L10,21 L30,21 L33,21 L33,30 L31,31 L9,30 L10,42 L18,43 L28,42 L35,43 L36,44 L36,51 L35,56 L33,52 L2,52 L2,54 L0,54 Z " fill="#F71864" transform="translate(821,670)"/>
<path d="M0,0 L35,0 L38,2 L36,2 L36,9 L30,10 L9,10 L10,21 L33,21 L33,30 L11,31 L9,32 L9,42 L19,42 L21,43 L29,43 L32,42 L36,43 L36,51 L0,51 L-2,48 L-2,42 L0,42 Z M-1,43 Z " fill="#F81363" transform="translate(570,670)"/>
<path d="M0,0 L13,0 L21,4 L27,11 L29,20 L19,20 L16,13 L12,10 L5,9 L-2,12 L-6,19 L-7,29 L-4,39 L1,43 L11,43 L16,40 L19,34 L24,33 L29,34 L26,43 L21,49 L16,52 L12,53 L1,53 L-7,50 L-12,45 L-16,39 L-18,28 L-17,18 L-12,8 L-6,3 Z " fill="#F81A67" transform="translate(777,670)"/>
<path d="M0,0 L12,1 L23,1 L27,2 L30,2 L28,5 L18,7 L0,8 L-3,9 L-16,8 L-37,8 L-46,7 L-57,7 L-61,8 L-63,7 L-86,6 L-89,6 L-99,7 L-103,7 L-113,5 L-119,6 L-125,6 L-128,7 L-136,5 L-137,7 L-138,6 L-147,6 L-152,7 L-152,5 L-160,7 L-165,7 L-169,6 L-173,5 L-182,6 L-206,6 L-208,7 L-211,6 L-213,7 L-223,6 L-231,7 L-237,7 L-242,6 L-248,6 L-252,7 L-263,6 L-306,5 L-331,5 L-338,6 L-338,4 L-345,4 L-345,2 L-4,2 L-2,1 L0,2 Z M17,2 Z M24,3 Z M-152,4 Z M-28,6 Z " fill="#D0A9B8" transform="translate(672,725)"/>
<path d="M0,0 L9,0 L14,12 L28,49 L28,51 L19,52 L16,47 L14,39 L-5,39 L-7,48 L-8,51 L-13,52 L-18,51 L-19,54 L-18,47 L-9,23 L-2,3 Z M4,13 L-1,27 L-1,30 L6,30 L9,30 L10,27 L7,19 L5,13 Z " fill="#F71864" transform="translate(138,670)"/>
<path d="M0,0 L10,0 L13,8 L22,34 L26,34 L29,22 L36,1 L37,0 L47,0 L44,11 L31,48 L29,52 L24,54 L19,54 L15,46 L3,11 L0,3 Z M24,35 L23,40 L25,38 Z M21,52 Z " fill="#F81A66" transform="translate(675,670)"/>
<path d="M0,0 L1,0 L1,1003 L0,1003 Z " fill="#D7CDD1" transform="translate(0,21)"/>
<path d="M0,0 L8,2 L9,10 L17,33 L17,37 L19,38 L31,3 L35,1 L41,1 L42,3 L25,52 L24,57 L23,53 L17,54 L14,54 L7,36 L-1,13 L-4,5 L-4,1 Z " fill="#F91B68" transform="translate(208,669)"/>
<path d="M0,0 L41,0 L43,2 L41,2 L42,9 L40,10 L25,10 L25,51 L15,51 L15,10 L-1,10 L-1,1 Z " fill="#F81464" transform="translate(316,670)"/>
<path d="M0,0 L3,1 L16,2 L17,3 L28,2 L48,2 L90,3 L86,6 L80,5 L69,5 L64,6 L52,6 L48,5 L44,6 L34,6 L32,7 L22,6 L8,7 L-12,7 L-13,8 L-22,9 L-75,10 L-80,11 L-80,9 L-88,9 L-88,8 L-69,6 L-55,5 L-44,4 L-27,3 L-13,2 L-4,1 Z M66,4 Z " fill="#E8BACC" transform="translate(318,727)"/>
<path d="M0,0 L8,0 L10,5 L10,26 L9,51 L2,53 L-1,51 L-1,1 Z " fill="#F81B66" transform="translate(734,670)"/>
<path d="M0,0 L8,1 L13,4 L17,12 L18,20 L18,52 L95,52 L94,49 L95,22 L96,22 L97,28 L98,54 L94,55 L15,55 L14,15 L11,6 L7,4 L-2,3 L0,2 Z " fill="#F8135D" transform="translate(754,314)"/>
<path d="M0,0 L23,0 L39,2 L45,2 L52,4 L53,2 L58,3 L74,4 L76,4 L76,6 L81,5 L82,8 L77,9 L76,8 L41,8 L20,7 L7,5 L-23,5 L-26,3 L-8,2 Z " fill="#F4D3E0" transform="translate(700,729)"/>
<path d="M0,0 L43,0 L44,23 L44,57 L43,57 L41,40 L41,3 L-25,4 L-26,5 L-31,5 L-31,31 L-32,31 L-34,16 L-34,1 Z M-28,3 Z " fill="#FA1461" transform="translate(702,513)"/>
<path d="M0,0 L8,2 L6,10 L3,33 L1,40 L0,40 L0,31 L3,6 L4,4 L-87,4 L-88,2 L-78,1 L-2,1 L0,2 Z " fill="#F30F55" transform="translate(616,264)"/>
<path d="M0,0 L98,0 L99,1 L100,10 L100,22 L98,22 L96,3 L-2,3 L-2,1 Z " fill="#F40F57" transform="translate(378,265)"/>
<path d="M0,0 L12,1 L23,1 L27,2 L30,2 L28,5 L18,7 L0,8 L-3,9 L-16,8 L-37,8 L-46,7 L-57,7 L-61,8 L-63,7 L-71,7 L-73,5 L-13,4 L-4,2 L-2,1 L0,2 Z M17,2 Z M24,3 Z M-28,6 Z " fill="#E3C0CD" transform="translate(672,725)"/>
<path d="M0,0 L1,4 L145,5 L145,7 L0,7 Z " fill="#FA165A" transform="translate(429,629)"/>
<path d="M0,0 L3,1 L5,4 L9,2 L32,1 L33,3 L33,10 L27,12 L-3,11 L-2,9 L-2,1 Z " fill="#F52771" transform="translate(431,711)"/>
<path d="M0,0 L88,0 L88,8 L89,15 L89,28 L88,28 L85,11 L84,2 L-17,2 L-17,1 Z " fill="#F60248" transform="translate(224,266)"/>
<path d="M0,0 L27,0 L29,2 L-56,3 L-73,4 L-107,4 L-109,18 L-110,18 L-110,4 L-108,1 L-57,1 Z " fill="#F01B62" transform="translate(280,264)"/>
<path d="M0,0 L5,1 L22,14 L29,21 L35,31 L38,41 L39,52 L39,77 L38,84 L36,83 L35,40 L30,28 L22,18 L11,9 L0,2 Z " fill="#F81258" transform="translate(738,487)"/>
<path d="M0,0 L6,2 L18,2 L28,1 L50,1 L50,3 L38,3 L37,4 L28,5 L-25,6 L-30,7 L-30,5 L-38,5 L-38,4 L-19,2 L-5,1 Z " fill="#F1D1DD" transform="translate(268,731)"/>
<path d="M0,0 L80,1 L122,2 L122,4 L114,5 L108,5 L103,4 L97,4 L93,5 L82,4 L39,3 L14,3 L7,4 L7,2 L0,2 Z " fill="#DEADC0" transform="translate(327,727)"/>
<path d="M0,0 L17,0 L29,1 L35,4 L37,8 L33,6 L29,4 L3,3 L1,2 L2,7 L2,50 L7,50 L7,51 L-1,51 L-1,1 Z " fill="#F51A5C" transform="translate(624,670)"/>
<path d="M0,0 L5,2 L21,12 L34,22 L44,31 L54,41 L63,54 L62,56 L58,52 L52,44 L50,42 L44,35 L37,29 L33,27 L31,23 L23,18 L21,17 L17,13 L1,3 Z M35,27 Z " fill="#FA1055" transform="translate(784,411)"/>
<path d="M0,0 L2,1 L2,5 L4,6 L6,17 L13,33 L22,48 L31,58 L35,63 L38,65 L37,68 L27,60 L24,55 L15,43 L10,35 L6,26 L6,22 L4,22 L0,7 Z " fill="#F90F55" transform="translate(668,395)"/>
<path d="M0,0 L23,0 L39,2 L38,5 L16,4 L6,5 L-23,5 L-26,3 L-8,2 Z " fill="#F2C6D7" transform="translate(700,729)"/>
<path d="M0,0 L1,0 L3,12 L7,57 L7,87 L6,87 L3,55 L1,24 L0,18 Z " fill="#F80D53" transform="translate(489,385)"/>
<path d="M0,0 L35,0 L36,2 L11,3 L1,3 L1,8 L16,8 L16,51 L15,51 L15,10 L-1,10 L-1,1 Z " fill="#F5276B" transform="translate(316,670)"/>
<path d="M0,0 L41,0 L51,1 L51,4 L-6,4 L-4,1 Z " fill="#D394AB" transform="translate(469,724)"/>
<path d="M0,0 L1,0 L1,16 L-2,39 L-3,46 L29,46 L29,48 L-3,48 L-5,47 L-3,20 L-1,3 Z " fill="#F80A50" transform="translate(230,461)"/>
<path d="M0,0 L21,0 L28,1 L47,1 L50,4 L-1,4 Z M12,1 Z " fill="#DD86A6" transform="translate(521,724)"/>
<path d="M0,0 L30,0 L36,1 L36,9 L31,10 L28,8 L33,8 L33,3 L28,4 L25,3 L1,2 L0,51 L-1,51 L-1,2 L-4,1 Z " fill="#F52467" transform="translate(428,670)"/>
<path d="M0,0 L9,0 L8,3 L7,2 L8,4 L10,4 L10,6 L22,5 L28,5 L35,4 L45,3 L52,4 L56,5 L60,6 L60,7 L-2,7 L0,6 Z M2,3 L2,6 L5,5 L3,5 Z M36,5 Z " fill="#EA99B8" transform="translate(332,721)"/>
<path d="M0,0 L1,0 L3,24 L4,28 L6,56 L6,69 L3,68 L2,46 L0,24 L-1,22 L-1,1 Z " fill="#F8115C" transform="translate(245,348)"/>
<path d="M0,0 L12,1 L12,8 L-12,8 L-12,7 L-6,6 L-7,3 L-9,2 Z " fill="#F90E5A" transform="translate(590,691)"/>
<path d="M0,0 L1,0 L1,12 L-4,44 L-7,64 L-8,64 L-8,50 L-2,7 L0,7 Z " fill="#F71055" transform="translate(163,326)"/>
<path d="M0,0 L1,0 L5,19 L10,52 L10,64 L8,61 L4,33 L0,8 Z " fill="#F80E52" transform="translate(341,476)"/>
<path d="M0,0 L12,1 L23,1 L27,2 L30,2 L28,5 L21,6 L-5,6 L-9,4 L-9,3 L-2,1 L0,2 Z M17,2 Z M24,3 Z " fill="#EDABC5" transform="translate(672,725)"/>
<path d="M0,0 L2,1 L9,47 L9,59 L7,55 L4,37 L1,15 L0,9 Z " fill="#F81055" transform="translate(356,573)"/>
<path d="M0,0 L1,0 L1,14 L-4,53 L-6,60 L-7,60 L-7,51 L-4,30 L-1,2 Z " fill="#F80F54" transform="translate(589,506)"/>
<path d="M0,0 L25,0 L67,1 L63,4 L57,3 L46,3 L41,4 L29,4 L28,3 L11,2 L6,3 L-4,3 L-6,1 Z M43,2 Z " fill="#DDBBC8" transform="translate(341,729)"/>
<path d="M0,0 L1,3 L1,48 L-1,48 L-3,32 L-3,10 L-2,1 Z " fill="#F9135D" transform="translate(620,435)"/>
<path d="M0,0 L9,0 L9,2 L18,2 L23,3 L32,5 L32,7 L23,8 L8,7 L8,5 L1,5 L1,2 Z " fill="#F0D2DD" transform="translate(799,737)"/>
<path d="M0,0 L1,3 L0,6 L4,8 L4,9 L-34,9 L-30,6 L-24,5 L-19,6 L-9,6 L-9,2 L0,2 Z M-4,3 L-2,5 L-1,3 Z M-5,4 Z M-2,5 L-6,7 L-2,8 L0,7 Z M4,7 Z " fill="#E998B7" transform="translate(664,719)"/>
<path d="M0,0 L60,0 L60,1 L2,1 L3,8 L3,30 L2,30 L0,15 Z " fill="#F80747" transform="translate(668,514)"/>
<path d="M0,0 L2,0 L3,15 L2,16 L-1,47 L-3,47 L-3,30 L-2,23 L-1,4 Z " fill="#F9125B" transform="translate(241,348)"/>
<path d="M0,0 L1,2 L0,44 L-2,44 L-3,37 L-3,9 L-1,1 Z " fill="#F8115A" transform="translate(741,325)"/>
<path d="M0,0 L2,3 L6,33 L8,44 L8,52 L6,52 L2,26 L2,19 L0,18 Z " fill="#F81257" transform="translate(416,540)"/>
<path d="M0,0 L18,0 L20,2 L2,3 L1,16 L19,16 L15,19 L0,19 Z " fill="#F71358" transform="translate(378,677)"/>
<path d="M0,0 L1,0 L1,6 L3,6 L3,34 L1,49 L-1,50 L-1,39 L0,30 Z " fill="#F61359" transform="translate(917,436)"/>
<path d="M0,0 L1,2 L-4,7 L-5,9 L-7,9 L-9,13 L-19,28 L-26,41 L-27,37 L-20,24 L-11,11 L-2,1 Z " fill="#F90F52" transform="translate(658,354)"/>
<path d="M0,0 L7,0 L7,9 L-15,10 L-17,11 L-17,21 L-7,21 L-4,24 L-18,24 L-18,22 L-20,21 L-19,8 L6,8 L6,1 L0,1 Z " fill="#F42B6F" transform="translate(596,691)"/>
<path d="M0,0 L2,2 L3,19 L5,37 L5,50 L2,48 L1,28 L0,17 Z " fill="#F90F54" transform="translate(254,454)"/>
<path d="M0,0 L2,4 L7,39 L7,47 L5,47 L0,13 Z " fill="#F90F55" transform="translate(393,384)"/>
<path d="M0,0 L1,0 L1,14 L-3,44 L-5,44 L-5,33 L-1,3 Z " fill="#F80F55" transform="translate(614,314)"/>
<path d="M0,0 L31,0 L35,1 L35,13 L33,11 L33,3 L5,3 L-2,2 Z " fill="#F80A51" transform="translate(227,565)"/>
<path d="M0,0 L5,4 L11,11 L17,15 L16,1 L18,4 L21,18 L21,21 L17,19 L6,10 L2,5 L0,4 Z " fill="#F70F56" transform="translate(656,556)"/>
<path d="M0,0 L2,0 L7,32 L7,45 L5,43 L0,6 Z " fill="#F80F53" transform="translate(329,398)"/>
<path d="M0,0 L2,0 L2,11 L-2,43 L-4,44 L-4,34 L-2,14 Z " fill="#F81055" transform="translate(580,570)"/>
<path d="M0,0 L11,0 L17,1 L16,3 L3,3 L1,4 L-9,3 L-23,4 L-30,4 L-30,2 L-27,1 L-1,1 Z " fill="#E1C5D0" transform="translate(349,730)"/>
<path d="M0,0 L1,0 L0,8 L-9,27 L-16,38 L-19,37 L-11,24 L-3,7 Z " fill="#F51151" transform="translate(909,509)"/>
<path d="M0,0 L9,0 L10,5 L6,7 L-16,7 L-14,4 L-8,3 L-7,4 L3,2 Z M5,3 Z " fill="#E38FAF" transform="translate(624,721)"/>
<path d="M0,0 L7,0 L7,2 L-9,4 L-18,3 L-29,3 L-33,4 L-35,3 L-43,3 L-45,1 Z " fill="#D9B9C4" transform="translate(644,729)"/>
<path d="M0,0 L4,1 L12,8 L21,17 L29,28 L28,31 L21,22 L12,12 L4,4 Z " fill="#F70D50" transform="translate(862,340)"/>
<path d="M0,0 L73,0 L73,1 L7,2 L6,3 L1,3 Z M4,1 Z " fill="#FB277A" transform="translate(670,515)"/>
<path d="M0,0 L1,0 L0,20 L-1,21 L-4,42 L-5,42 L-5,28 L-2,6 L0,6 Z " fill="#F71053" transform="translate(128,580)"/>
<path d="M0,0 L1,3 L-10,16 L-14,21 L-22,28 L-27,29 L-27,27 L-22,24 L-8,10 Z " fill="#F60F50" transform="translate(889,548)"/>
<path d="M0,0 L1,0 L1,13 L-2,36 L-4,37 L-4,24 L-1,2 Z " fill="#F80E53" transform="translate(597,446)"/>
<path d="M0,0 L3,1 L11,14 L18,29 L18,35 L16,33 L9,17 L0,2 Z " fill="#F50F51" transform="translate(892,372)"/>
<path d="M0,0 L41,0 L41,2 L33,3 L27,3 L22,2 L16,2 L12,3 L1,2 Z " fill="#D2B2BE" transform="translate(408,729)"/>
<path d="M0,0 L1,0 L1,18 L-1,37 L-3,37 L-3,23 L-1,3 Z " fill="#F80F54" transform="translate(234,423)"/>
<path d="M0,0 L2,1 L3,5 L3,26 L2,51 L-5,53 L-7,51 L0,50 Z " fill="#F6457F" transform="translate(741,670)"/>
<path d="M0,0 L2,4 L5,22 L6,38 L4,38 L0,11 Z " fill="#F90F54" transform="translate(400,433)"/>
<path d="M0,0 L2,0 L1,18 L-2,38 L-3,38 L-3,23 Z " fill="#F90E54" transform="translate(517,305)"/>
<path d="M0,0 L1,0 L1,7 L-4,8 L-26,7 L-26,20 L-27,20 L-27,6 L-26,5 L0,5 Z " fill="#F70E55" transform="translate(604,672)"/>
<path d="M0,0 L1,0 L2,14 L2,48 L1,48 L-1,31 Z " fill="#FA084B" transform="translate(744,522)"/>
<path d="M0,0 L1,0 L1,11 L-3,36 L-4,36 L-4,22 L-1,1 Z " fill="#F81055" transform="translate(141,484)"/>
<path d="M0,0 L3,1 L5,9 L6,20 L6,32 L4,29 L0,3 Z " fill="#F90F55" transform="translate(323,365)"/>
<path d="M0,0 L25,0 L26,2 L16,3 L-13,3 L-16,1 Z " fill="#E9CCD7" transform="translate(690,731)"/>
<path d="M0,0 L4,4 L13,28 L13,33 L10,29 L4,12 L0,3 Z " fill="#F51357" transform="translate(148,678)"/>
<path d="M0,0 L1,0 L0,21 L-2,37 L-3,37 L-3,16 L-2,7 L0,7 Z " fill="#F90C52" transform="translate(511,361)"/>
<path d="M0,0 L25,0 L28,2 L24,3 L-2,3 Z " fill="#E8B4C8" transform="translate(669,728)"/>
<path d="M0,0 L2,3 L4,17 L4,33 L3,33 L0,12 Z " fill="#F90D52" transform="translate(482,321)"/>
<path d="M0,0 L3,0 L0,26 L-2,29 L-2,15 Z " fill="#F51055" transform="translate(166,296)"/>
<path d="M0,0 L2,1 L2,10 L0,11 L-22,10 L-22,9 L1,9 L0,8 L-9,8 L-9,7 L-4,6 L-4,3 L0,2 Z " fill="#F7286F" transform="translate(852,690)"/>
<path d="M0,0 L4,4 L14,19 L17,23 L17,25 L14,24 L3,8 L0,3 Z " fill="#F80E52" transform="translate(638,531)"/>
<path d="M0,0 L2,3 L3,17 L3,33 L1,30 L0,19 Z " fill="#F90C52" transform="translate(251,420)"/>
<path d="M0,0 L2,0 L2,12 L0,28 L-2,29 L-2,17 Z " fill="#F81056" transform="translate(600,416)"/>
<path d="M0,0 L10,1 L9,3 L-6,4 L-14,4 L-17,1 Z " fill="#EFC3D4" transform="translate(287,730)"/>
<path d="M0,0 L1,0 L6,17 L9,26 L9,29 L7,29 L-1,6 L-1,1 Z " fill="#F71959" transform="translate(681,681)"/>
<path d="M0,0 L3,1 L4,15 L4,28 L3,28 L0,11 L-1,2 Z " fill="#F60F57" transform="translate(309,266)"/>
<path d="M0,0 L9,0 L9,2 L13,3 L13,5 L16,5 L16,7 L8,7 L8,5 L1,5 L1,2 Z " fill="#F3DBE4" transform="translate(799,737)"/>
<path d="M0,0 L8,1 L13,4 L17,12 L16,16 L14,15 L11,6 L7,4 L-2,3 L0,2 Z " fill="#F51057" transform="translate(754,314)"/>
<path d="M0,0 L1,0 L1,15 L-1,26 L-3,30 L-3,20 Z " fill="#F90D53" transform="translate(608,359)"/>
<path d="M0,0 L7,0 L8,3 L3,13 L1,15 L-2,14 L2,10 L5,3 L-2,5 L-2,1 Z " fill="#F61E5F" transform="translate(798,703)"/>
<path d="M0,0 L17,0 L19,2 L11,3 L-6,3 L-4,1 Z M19,0 Z " fill="#EEBED0" transform="translate(700,729)"/>
<path d="M0,0 L1,0 L1,6 L-1,4 L-24,3 L-22,1 Z " fill="#ED2E6B" transform="translate(462,712)"/>
<path d="M0,0 L1,0 L1,16 L0,25 L-2,26 L-2,11 Z " fill="#F70C51" transform="translate(237,396)"/>
<path d="M0,0 L7,4 L23,15 L20,16 L6,7 L0,2 Z " fill="#F90D4F" transform="translate(758,393)"/>
<path d="M0,0 L2,1 L8,13 L15,20 L12,21 L3,11 L0,5 Z " fill="#F90E53" transform="translate(741,370)"/>
<path d="M0,0 L10,0 L14,2 L14,9 L12,7 L11,4 L-3,3 L-4,1 Z " fill="#EB3B75" transform="translate(843,712)"/>
<path d="M0,0 L1,0 L1,9 L-2,29 L-3,29 L-3,14 Z " fill="#F80D51" transform="translate(147,441)"/>
<path d="M0,0 L3,0 L1,12 L-2,22 L-3,22 L-3,12 Z " fill="#F91056" transform="translate(623,412)"/>
<path d="M0,0 L1,0 L1,15 L0,24 L-3,24 L-1,3 Z " fill="#F90E53" transform="translate(604,390)"/>
<path d="M0,0 L2,3 L4,8 L4,25 L2,22 L0,9 Z " fill="#F80D52" transform="translate(316,313)"/>
<path d="M0,0 L4,0 L4,2 L23,5 L23,7 L12,7 L4,4 Z M15,3 Z " fill="#F2356B" transform="translate(766,716)"/>
<path d="M0,0 L2,0 L3,16 L10,17 L10,18 L2,18 L1,20 L0,18 L1,16 L-1,16 L0,9 L-1,7 Z M0,13 Z " fill="#F2548A" transform="translate(369,704)"/>
<path d="M0,0 L27,0 L27,2 L15,2 L14,3 L-3,2 Z " fill="#E9CDD7" transform="translate(291,732)"/>
<path d="M0,0 L1,0 L0,16 L-2,27 L-3,27 L-3,14 Z " fill="#F70D50" transform="translate(151,412)"/>
<path d="M0,0 L2,0 L2,9 L-23,8 L-23,7 L0,7 Z " fill="#EC2463" transform="translate(855,671)"/>
<path d="M0,0 L1,0 L3,18 L3,27 L1,25 L0,22 Z " fill="#F90C51" transform="translate(264,604)"/>
<path d="M0,0 L7,5 L20,5 L20,7 L18,8 L6,8 L0,3 Z " fill="#F71358" transform="translate(748,577)"/>
<path d="M0,0 L1,0 L2,7 L3,8 L3,27 L1,25 Z " fill="#F80D52" transform="translate(486,355)"/>
<path d="M0,0 L1,0 L1,8 L0,12 L7,12 L5,13 L5,15 L-1,19 L-3,19 Z " fill="#F41E66" transform="translate(859,564)"/>
<path d="M0,0 L4,1 L17,10 L16,13 L4,5 L0,2 Z " fill="#F90E52" transform="translate(720,474)"/>
<path d="M0,0 L5,2 L13,8 L14,11 L9,9 L5,6 L1,5 Z " fill="#F40E55" transform="translate(847,328)"/>
<path d="M0,0 L2,3 L4,16 L4,23 L1,22 Z " fill="#F61258" transform="translate(375,265)"/>
<path d="M0,0 L1,0 L0,7 L-5,21 L-7,21 L-4,10 Z " fill="#F71C5C" transform="translate(236,683)"/>
<path d="M0,0 L25,0 L25,1 L10,3 L0,1 Z " fill="#F80D54" transform="translate(436,677)"/>
<path d="M0,0 L1,0 L1,13 L-1,20 L-2,20 L-2,8 L-1,1 Z " fill="#F80D51" transform="translate(592,484)"/>
<path d="M0,0 L1,0 L1,16 L0,18 L7,18 L7,19 L-2,19 L-1,7 Z " fill="#F51860" transform="translate(122,615)"/>
<path d="M0,0 L2,3 L3,11 L3,21 L1,20 L0,13 Z " fill="#F90D53" transform="translate(411,505)"/>
<path d="M0,0 L1,0 L1,8 L-3,20 L-5,20 L-2,8 L-1,1 Z " fill="#F50F51" transform="translate(915,487)"/>
<path d="M0,0 L2,4 L2,6 L-3,7 L-6,6 L-6,1 Z " fill="#F91361" transform="translate(520,706)"/>
<path d="M0,0 L1,0 L1,13 L0,19 L-2,18 L-2,8 Z " fill="#F80E55" transform="translate(575,616)"/>
<path d="M0,0 L3,0 L2,6 L2,18 L-1,17 L-1,7 Z " fill="#F71358" transform="translate(761,689)"/>
<path d="M0,0 L3,3 L7,15 L7,20 L5,17 L1,7 Z " fill="#F81154" transform="translate(214,676)"/>
<path d="M0,0 L11,0 L11,12 L9,10 L9,2 L0,1 Z " fill="#F7125A" transform="translate(251,566)"/>
<path d="M0,0 L3,4 L8,14 L8,17 L6,17 L0,4 Z " fill="#F80E52" transform="translate(629,512)"/>
<path d="M0,0 L2,4 L3,11 L3,20 L1,19 L0,13 Z " fill="#F90E53" transform="translate(379,289)"/>
<path d="M0,0 L2,0 L3,7 L-7,7 L-7,2 L-5,3 L-5,5 L0,5 Z " fill="#F62163" transform="translate(803,683)"/>
<path d="M0,0 L10,0 L10,1 L3,2 L6,12 L4,14 L0,3 Z " fill="#F32969" transform="translate(675,670)"/>
<path d="M0,0 L5,1 L9,6 L9,13 L2,13 L2,12 L8,12 L4,4 Z " fill="#F90E53" transform="translate(543,673)"/>
<path d="M0,0 L2,1 L6,14 L6,19 L4,16 L0,5 Z " fill="#F90F54" transform="translate(854,483)"/>
<path d="M0,0 L1,0 L0,13 L-1,21 L-2,21 L-3,12 L-2,2 Z " fill="#F61861" transform="translate(617,299)"/>
<path d="M0,0 L2,0 L2,10 L0,19 L-1,19 L-1,7 Z " fill="#F70F54" transform="translate(522,268)"/>
<path d="M0,0 L16,0 L17,5 L15,5 L14,3 L-1,2 Z " fill="#F52160" transform="translate(444,691)"/>
<path d="M0,0 L2,1 L3,7 L3,19 L1,16 Z " fill="#F80E54" transform="translate(351,541)"/>
<path d="M0,0 L2,3 L3,5 L3,17 L1,16 L0,10 Z " fill="#F80B4F" transform="translate(313,295)"/>
<path d="M0,0 L6,1 L6,9 L0,9 L4,8 L4,3 L-3,3 Z " fill="#EC326C" transform="translate(600,712)"/>
<path d="M0,0 L1,0 L2,7 L2,20 L-1,19 Z " fill="#F90C4F" transform="translate(249,397)"/>
<path d="M0,0 L1,0 L1,10 L-1,20 L-2,20 L-2,6 L0,6 Z " fill="#F80C4F" transform="translate(131,558)"/>
<path d="M0,0 L2,0 L7,10 L7,14 L5,14 L0,3 Z " fill="#F90F55" transform="translate(847,468)"/>
<path d="M0,0 L2,2 L3,5 L3,17 L1,15 L0,8 Z " fill="#F80C50" transform="translate(338,457)"/>
<path d="M0,0 L13,0 L11,3 L4,3 L0,2 Z " fill="#F80D54" transform="translate(135,701)"/>
<path d="M0,0 L2,3 L3,18 L1,15 L0,13 Z " fill="#F90B50" transform="translate(388,350)"/>
<path d="M0,0 L2,4 L3,6 L3,17 L1,14 L0,10 Z " fill="#F90A4B" transform="translate(321,346)"/>
<path d="M0,0 L10,2 L10,4 L1,5 Z " fill="#EAC9D5" transform="translate(821,740)"/>
<path d="M0,0 L3,2 L5,8 L5,15 L3,12 L0,3 Z " fill="#F40F51" transform="translate(910,408)"/>
<path d="M0,0 L7,1 L7,3 L1,3 L0,8 L-2,8 L-1,1 Z " fill="#F61156" transform="translate(138,670)"/>
<path d="M0,0 L2,1 L2,15 L0,15 L-1,1 Z " fill="#F52163" transform="translate(378,706)"/>
<path d="M0,0 L1,0 L2,14 L-2,12 L-2,5 L0,5 Z M-1,6 Z " fill="#F0306D" transform="translate(570,707)"/>
<path d="M0,0 L1,0 L1,5 L8,5 L9,3 L9,6 L-2,7 L-2,2 Z " fill="#F62D73" transform="translate(136,695)"/>
<path d="M0,0 L10,0 L10,1 L-2,4 L-5,4 L-5,2 Z " fill="#F41052" transform="translate(778,677)"/>
<path d="M0,0 L5,1 L5,3 L0,3 L0,16 L-1,16 L-1,1 Z " fill="#F80F5D" transform="translate(736,670)"/>
<path d="M0,0 L2,1 L5,11 L2,11 L0,6 Z " fill="#F80E53" transform="translate(625,500)"/>
<path d="M0,0 L2,0 L2,10 L-1,11 L-1,4 Z " fill="#F80D5B" transform="translate(241,348)"/>
<path d="M0,0 L2,2 L1,9 L-1,6 L-6,7 Z " fill="#F31C67" transform="translate(668,342)"/>
<path d="M0,0 L6,0 L14,3 L14,4 L4,3 Z " fill="#F91156" transform="translate(526,697)"/>
<path d="M0,0 L4,1 L8,6 L6,10 L2,3 Z " fill="#F71154" transform="translate(796,675)"/>
<path d="M0,0 L2,1 L5,11 L2,11 L0,5 Z " fill="#F81457" transform="translate(208,680)"/>
<path d="M0,0 L7,0 L10,9 L7,7 L5,1 L0,1 Z " fill="#F42266" transform="translate(140,670)"/>
<path d="M0,0 L3,1 L6,7 L5,11 L0,2 Z " fill="#F42D6A" transform="translate(648,709)"/>
<path d="M0,0 L10,0 L9,3 L0,3 Z " fill="#F52B6B" transform="translate(712,670)"/>
<path d="M0,0 L14,0 L14,1 L6,2 L6,3 L0,3 Z " fill="#F31A63" transform="translate(523,265)"/>
<path d="M0,0 L10,1 L10,3 L1,4 L-1,2 Z " fill="#F5286C" transform="translate(369,669)"/>
<path d="M0,0 L4,0 L3,7 L0,8 L1,3 Z " fill="#F62F6A" transform="translate(698,704)"/>
<path d="M0,0 L1,4 L-2,11 L-4,11 L-1,2 Z " fill="#F81858" transform="translate(242,688)"/>
<path d="M0,0 L3,3 L4,11 L1,7 Z " fill="#F80D52" transform="translate(685,675)"/>
<path d="M0,0 L1,0 L3,7 L-1,7 L-4,4 L-1,3 Z " fill="#F41F67" transform="translate(675,569)"/>
<path d="M0,0 L1,0 L1,20 L0,20 Z " fill="#D6D2D4" transform="translate(0,0)"/>
<path d="M0,0 L2,1 L2,10 L-1,9 L-1,1 Z " fill="#F51F5F" transform="translate(624,670)"/>
<path d="M0,0 L6,0 L7,2 L5,8 L4,8 L4,2 Z " fill="#F62A6E" transform="translate(243,670)"/>
<path d="M0,0 L4,1 L-4,7 L-3,3 Z " fill="#F70C4E" transform="translate(746,317)"/>
<path d="M0,0 L4,3 L8,4 L3,6 L0,3 Z " fill="#F33673" transform="translate(271,709)"/>
<path d="M0,0 L2,0 L2,9 L-1,8 Z " fill="#F3387A" transform="translate(369,704)"/>
<path d="M0,0 L3,1 L0,5 L-5,6 Z " fill="#F8145A" transform="translate(661,349)"/>
<path d="M0,0 L5,0 L5,3 L-2,2 Z " fill="#A8A4A6" transform="translate(529,740)"/>
<path d="M0,0 L1,0 L0,7 L-2,10 L-1,1 Z " fill="#F80F52" transform="translate(236,683)"/>
<path d="M0,0 L1,0 L1,8 L0,8 Z " fill="#EC5890" transform="translate(425,712)"/>
<path d="M0,0 L6,0 L6,2 L0,1 Z " fill="#F24B88" transform="translate(145,710)"/>
<path d="M0,0 L1,0 L1,6 L-1,5 Z " fill="#EF73A2" transform="translate(329,714)"/>
<path d="M0,0 L1,0 L1,7 L0,7 Z " fill="#F24B89" transform="translate(329,694)"/>
<path d="M0,0 L6,0 L6,1 L0,1 Z " fill="#F69FBF" transform="translate(280,724)"/>
<path d="M0,0 L4,1 L0,2 Z " fill="#F4A0BF" transform="translate(700,723)"/>
<path d="M0,0 L6,0 L6,1 L0,1 Z " fill="#EF4884" transform="translate(137,710)"/>
<path d="M0,0 L2,2 L-1,2 Z " fill="#F2A2C1" transform="translate(692,723)"/>
<path d="M0,0 L1,3 L-1,3 Z " fill="#F090B8" transform="translate(265,717)"/>
<path d="M0,0 L1,0 L1,5 L0,5 Z " fill="#F04A88" transform="translate(425,706)"/>
<path d="M0,0 L1,0 L1,5 L0,5 Z " fill="#F3588F" transform="translate(819,700)"/>
<path d="M0,0 L1,0 L1,5 L0,5 Z " fill="#F53F85" transform="translate(329,682)"/>
<path d="M0,0 L2,1 L2,3 L0,3 Z " fill="#F82777" transform="translate(498,464)"/>
<path d="M0,0 L4,1 Z " fill="#F99FC1" transform="translate(784,724)"/>
<path d="M0,0 L1,4 Z " fill="#F44785" transform="translate(819,684)"/>
<path d="M0,0 L1,4 Z " fill="#F12D77" transform="translate(128,559)"/>
<path d="M0,0 L2,2 L0,3 Z " fill="#F82B7C" transform="translate(651,555)"/>
<path d="M0,0 L1,4 Z " fill="#FA2A7B" transform="translate(401,459)"/>
<path d="M0,0 L2,2 L0,2 Z " fill="#F7B1CB" transform="translate(739,726)"/>
<path d="M0,0 L2,0 L1,2 Z " fill="#F4A7C4" transform="translate(697,725)"/>
<path d="M0,0 L3,1 Z " fill="#E27B9F" transform="translate(542,723)"/>
<path d="M0,0 Z " fill="#EC7EA6" transform="translate(381,720)"/>
<path d="M0,0 L2,2 L0,2 Z " fill="#EF74A2" transform="translate(342,718)"/>
<path d="M0,0 Z " fill="#EE5891" transform="translate(153,717)"/>
<path d="M0,0 Z " fill="#F15690" transform="translate(152,714)"/>
<path d="M0,0 L3,1 Z " fill="#F66395" transform="translate(785,712)"/>
<path d="M0,0 L2,1 L0,2 Z " fill="#F04482" transform="translate(134,710)"/>
<path d="M0,0 L2,0 L1,2 Z " fill="#F45890" transform="translate(792,706)"/>
<path d="M0,0 Z " fill="#F46098" transform="translate(257,702)"/>
<path d="M0,0 L3,1 Z " fill="#EF4785" transform="translate(600,701)"/>
<path d="M0,0 L3,1 Z " fill="#F53E82" transform="translate(585,701)"/>
<path d="M0,0 Z " fill="#F34283" transform="translate(425,698)"/>
<path d="M0,0 L3,1 Z " fill="#FD2B7D" transform="translate(319,637)"/>
<path d="M0,0 Z " fill="#F92A7B" transform="translate(223,618)"/>
<path d="M0,0 Z " fill="#FA2D7D" transform="translate(413,539)"/>
<path d="M0,0 L3,1 Z " fill="#FA297A" transform="translate(738,517)"/>
<path d="M0,0 Z " fill="#FA287A" transform="translate(618,484)"/>
<path d="M0,0 Z " fill="#FC297B" transform="translate(394,412)"/>
<path d="M0,0 Z " fill="#FB297B" transform="translate(244,377)"/>
<path d="M0,0 Z " fill="#FB297A" transform="translate(387,363)"/>
<path d="M0,0 Z " fill="#F02974" transform="translate(160,328)"/>
<path d="M0,0 Z " fill="#ED9DBC" transform="translate(329,725)"/>
<path d="M0,0 L2,1 Z " fill="#F7A7C4" transform="translate(277,726)"/>
<path d="M0,0 Z " fill="#EC97B8" transform="translate(343,724)"/>
<path d="M0,0 L2,1 Z " fill="#F9ACCC" transform="translate(225,725)"/>
<path d="M0,0 Z " fill="#F8A7C7" transform="translate(743,723)"/>
<path d="M0,0 L2,1 Z " fill="#E7739D" transform="translate(846,723)"/>
<path d="M0,0 L2,1 Z " fill="#E587AA" transform="translate(623,723)"/>
<path d="M0,0 L2,1 Z " fill="#EA8DB0" transform="translate(373,723)"/>
<path d="M0,0 L2,1 Z " fill="#EC75A2" transform="translate(648,719)"/>
<path d="M0,0 L2,1 Z " fill="#E76898" transform="translate(414,719)"/>
<path d="M0,0 Z " fill="#EE75A2" transform="translate(650,717)"/>
<path d="M0,0 L2,1 Z " fill="#ED6899" transform="translate(396,718)"/>
<path d="M0,0 Z " fill="#E86092" transform="translate(607,716)"/>
<path d="M0,0 Z " fill="#F481AB" transform="translate(217,714)"/>
<path d="M0,0 L2,1 Z " fill="#EA6697" transform="translate(512,714)"/>
<path d="M0,0 Z " fill="#F26B9C" transform="translate(819,712)"/>
<path d="M0,0 Z " fill="#F24681" transform="translate(438,711)"/>
<path d="M0,0 Z " fill="#EF568D" transform="translate(393,711)"/>
<path d="M0,0 Z " fill="#F36596" transform="translate(819,709)"/>
<path d="M0,0 Z " fill="#F35E96" transform="translate(329,707)"/>
<path d="M0,0 Z " fill="#F3518C" transform="translate(342,706)"/>
<path d="M0,0 Z " fill="#F35D91" transform="translate(271,705)"/>
<path d="M0,0 Z " fill="#F74685" transform="translate(532,702)"/>
<path d="M0,0 Z " fill="#F1518C" transform="translate(329,702)"/>
<path d="M0,0 L2,1 Z " fill="#EB4986" transform="translate(849,701)"/>
<path d="M0,0 L2,1 Z " fill="#F84085" transform="translate(530,701)"/>
<path d="M0,0 L2,1 Z " fill="#EF4C87" transform="translate(457,701)"/>
<path d="M0,0 Z " fill="#F75E98" transform="translate(212,700)"/>
<path d="M0,0 Z " fill="#F45693" transform="translate(683,699)"/>
<path d="M0,0 Z " fill="#F54685" transform="translate(342,695)"/>
<path d="M0,0 Z " fill="#F64486" transform="translate(329,691)"/>
<path d="M0,0 Z " fill="#EE4080" transform="translate(128,690)"/>
<path d="M0,0 L2,1 Z " fill="#F53F83" transform="translate(395,690)"/>
<path d="M0,0 Z " fill="#F83F82" transform="translate(651,684)"/>
<path d="M0,0 Z " fill="#F73D82" transform="translate(541,683)"/>
<path d="M0,0 Z " fill="#F3417F" transform="translate(819,676)"/>
<path d="M0,0 Z " fill="#ED4B87" transform="translate(687,672)"/>
<path d="M0,0 L2,1 Z " fill="#F44085" transform="translate(312,671)"/>
<path d="M0,0 L2,1 Z " fill="#FA2F7E" transform="translate(430,637)"/>
<path d="M0,0 L2,1 Z " fill="#FC2E7E" transform="translate(161,637)"/>
<path d="M0,0 Z " fill="#F52F7C" transform="translate(222,631)"/>
<path d="M0,0 Z " fill="#FB2C7C" transform="translate(426,629)"/>
<path d="M0,0 Z " fill="#F13077" transform="translate(123,596)"/>
<path d="M0,0 Z " fill="#FA2C7A" transform="translate(419,580)"/>
<path d="M0,0 Z " fill="#F72A79" transform="translate(583,578)"/>
<path d="M0,0 Z " fill="#FA2B7A" transform="translate(418,573)"/>
<path d="M0,0 Z " fill="#F62C7D" transform="translate(858,556)"/>
<path d="M0,0 Z " fill="#F82C7A" transform="translate(859,548)"/>
<path d="M0,0 Z " fill="#F32E78" transform="translate(131,537)"/>
<path d="M0,0 Z " fill="#F92878" transform="translate(411,526)"/>
<path d="M0,0 Z " fill="#FA2979" transform="translate(410,520)"/>
<path d="M0,0 Z " fill="#F7287A" transform="translate(591,516)"/>
<path d="M0,0 Z " fill="#F82A7A" transform="translate(626,512)"/>
<path d="M0,0 L2,1 Z " fill="#F52A78" transform="translate(229,504)"/>
<path d="M0,0 Z " fill="#EE2B76" transform="translate(918,487)"/>
<path d="M0,0 Z " fill="#EF2B76" transform="translate(919,481)"/>
<path d="M0,0 Z " fill="#F92878" transform="translate(231,481)"/>
<path d="M0,0 Z " fill="#F52A76" transform="translate(139,480)"/>
<path d="M0,0 Z " fill="#F32774" transform="translate(499,473)"/>
<path d="M0,0 Z " fill="#FA287A" transform="translate(403,472)"/>
<path d="M0,0 Z " fill="#F62C7C" transform="translate(616,470)"/>
<path d="M0,0 Z " fill="#F62B78" transform="translate(400,454)"/>
<path d="M0,0 Z " fill="#FB2778" transform="translate(250,445)"/>
<path d="M0,0 Z " fill="#F22A78" transform="translate(144,441)"/>
<path d="M0,0 Z " fill="#F8287B" transform="translate(816,438)"/>
<path d="M0,0 Z " fill="#FA2A79" transform="translate(395,420)"/>
<path d="M0,0 Z " fill="#FA2879" transform="translate(393,405)"/>
<path d="M0,0 Z " fill="#F72775" transform="translate(392,398)"/>
<path d="M0,0 Z " fill="#F92879" transform="translate(607,394)"/>
<path d="M0,0 Z " fill="#FA297A" transform="translate(245,389)"/>
<path d="M0,0 Z " fill="#FB287B" transform="translate(506,381)"/>
<path d="M0,0 Z " fill="#F9297B" transform="translate(327,365)"/>
<path d="M0,0 Z " fill="#F92A7B" transform="translate(243,364)"/>
<path d="M0,0 Z " fill="#F8287A" transform="translate(326,359)"/>
<path d="M0,0 Z " fill="#FB267B" transform="translate(385,351)"/>
<path d="M0,0 Z " fill="#F72778" transform="translate(485,322)"/>
<path d="M0,0 Z " fill="#F82677" transform="translate(378,304)"/>
<path d="M0,0 Z " fill="#454646" transform="translate(308,934)"/>
<path d="M0,0 Z " fill="#E5DFE1" transform="translate(792,767)"/>
<path d="M0,0 Z " fill="#FBACCB" transform="translate(784,727)"/>
<path d="M0,0 Z " fill="#F6B5CE" transform="translate(734,727)"/>
<path d="M0,0 Z " fill="#F9B4CD" transform="translate(728,727)"/>
<path d="M0,0 Z " fill="#F6A8C6" transform="translate(288,727)"/>
<path d="M0,0 Z " fill="#F7ABC8" transform="translate(280,727)"/>
<path d="M0,0 Z " fill="#F6AAC8" transform="translate(272,727)"/>
<path d="M0,0 Z " fill="#FBA8C7" transform="translate(788,726)"/>
<path d="M0,0 Z " fill="#FAA8C9" transform="translate(785,726)"/>
<path d="M0,0 Z " fill="#F8AFCC" transform="translate(741,726)"/>
<path d="M0,0 Z " fill="#F7A5C3" transform="translate(289,726)"/>
<path d="M0,0 Z " fill="#F6A8C3" transform="translate(282,726)"/>
<path d="M0,0 Z " fill="#FBB2CF" transform="translate(228,726)"/>
<path d="M0,0 Z " fill="#F28DB5" transform="translate(825,725)"/>
<path d="M0,0 Z " fill="#F490B4" transform="translate(823,725)"/>
<path d="M0,0 Z " fill="#F598BB" transform="translate(818,725)"/>
<path d="M0,0 Z " fill="#F6AECA" transform="translate(737,725)"/>
<path d="M0,0 Z " fill="#F5A6C3" transform="translate(703,725)"/>
<path d="M0,0 Z " fill="#F4A5C3" transform="translate(695,725)"/>
<path d="M0,0 Z " fill="#F6A1C1" transform="translate(295,725)"/>
<path d="M0,0 Z " fill="#F591B8" transform="translate(820,724)"/>
<path d="M0,0 Z " fill="#FCA2C1" transform="translate(782,724)"/>
<path d="M0,0 Z " fill="#F6A9C7" transform="translate(738,724)"/>
<path d="M0,0 Z " fill="#E88DAE" transform="translate(637,724)"/>
<path d="M0,0 Z " fill="#F6A4C2" transform="translate(277,724)"/>
<path d="M0,0 Z " fill="#F8A9C7" transform="translate(221,724)"/>
<path d="M0,0 Z " fill="#E674A0" transform="translate(156,724)"/>
<path d="M0,0 Z " fill="#ED7CA5" transform="translate(838,723)"/>
<path d="M0,0 Z " fill="#FB9BBD" transform="translate(791,723)"/>
<path d="M0,0 Z " fill="#FDA8C8" transform="translate(774,723)"/>
<path d="M0,0 Z " fill="#F7A7C4" transform="translate(737,723)"/>
<path d="M0,0 Z " fill="#E17EA1" transform="translate(526,723)"/>
<path d="M0,0 Z " fill="#DF7FA2" transform="translate(459,723)"/>
<path d="M0,0 Z " fill="#E67DA2" transform="translate(446,723)"/>
<path d="M0,0 Z " fill="#E384A6" transform="translate(414,723)"/>
<path d="M0,0 Z " fill="#E788AC" transform="translate(378,723)"/>
<path d="M0,0 Z " fill="#F99DBE" transform="translate(290,723)"/>
<path d="M0,0 Z " fill="#F9A6C5" transform="translate(226,723)"/>
<path d="M0,0 Z " fill="#E784AC" transform="translate(167,723)"/>
<path d="M0,0 Z " fill="#EE8EAF" transform="translate(823,722)"/>
<path d="M0,0 Z " fill="#E27EA1" transform="translate(523,722)"/>
<path d="M0,0 Z " fill="#EB82A9" transform="translate(383,722)"/>
<path d="M0,0 Z " fill="#EE93B4" transform="translate(331,722)"/>
<path d="M0,0 Z " fill="#F79ABD" transform="translate(272,722)"/>
<path d="M0,0 Z " fill="#E37CA4" transform="translate(414,721)"/>
<path d="M0,0 Z " fill="#F377A4" transform="translate(799,719)"/>
<path d="M0,0 Z " fill="#F793BA" transform="translate(728,719)"/>
<path d="M0,0 Z " fill="#E55E8D" transform="translate(550,719)"/>
<path d="M0,0 Z " fill="#E56C96" transform="translate(518,719)"/>
<path d="M0,0 Z " fill="#F58AB6" transform="translate(216,719)"/>
<path d="M0,0 Z " fill="#EB75A5" transform="translate(167,719)"/>
<path d="M0,0 Z " fill="#FB91B9" transform="translate(764,718)"/>
<path d="M0,0 Z " fill="#F176A1" transform="translate(819,717)"/>
<path d="M0,0 Z " fill="#F27BA9" transform="translate(689,717)"/>
<path d="M0,0 Z " fill="#F06E9E" transform="translate(343,717)"/>
<path d="M0,0 Z " fill="#F586B1" transform="translate(218,717)"/>
<path d="M0,0 Z " fill="#EC6998" transform="translate(515,716)"/>
<path d="M0,0 Z " fill="#F26C9C" transform="translate(342,716)"/>
<path d="M0,0 Z " fill="#FE88B6" transform="translate(763,715)"/>
<path d="M0,0 Z " fill="#F1709B" transform="translate(649,715)"/>
<path d="M0,0 Z " fill="#F272A3" transform="translate(688,714)"/>
<path d="M0,0 Z " fill="#F46D9F" transform="translate(663,714)"/>
<path d="M0,0 Z " fill="#EF6C9A" transform="translate(648,714)"/>
<path d="M0,0 Z " fill="#EF6699" transform="translate(342,714)"/>
<path d="M0,0 Z " fill="#F36C9E" transform="translate(662,713)"/>
<path d="M0,0 Z " fill="#F15D91" transform="translate(394,713)"/>
<path d="M0,0 Z " fill="#FB81AD" transform="translate(761,712)"/>
<path d="M0,0 Z " fill="#FA79A7" transform="translate(709,712)"/>
<path d="M0,0 Z " fill="#EC5085" transform="translate(598,712)"/>
<path d="M0,0 Z " fill="#F14C84" transform="translate(538,712)"/>
<path d="M0,0 Z " fill="#F04E86" transform="translate(536,712)"/>
<path d="M0,0 Z " fill="#F35990" transform="translate(342,711)"/>
<path d="M0,0 Z " fill="#ED6499" transform="translate(329,711)"/>
<path d="M0,0 Z " fill="#F66FA0" transform="translate(239,711)"/>
<path d="M0,0 Z " fill="#F96B9C" transform="translate(237,711)"/>
<path d="M0,0 Z " fill="#F04C89" transform="translate(407,710)"/>
<path d="M0,0 Z " fill="#F776A7" transform="translate(257,710)"/>
<path d="M0,0 Z " fill="#F65E98" transform="translate(291,709)"/>
<path d="M0,0 Z " fill="#F35E94" transform="translate(806,708)"/>
<path d="M0,0 Z " fill="#EF4C89" transform="translate(524,708)"/>
<path d="M0,0 Z " fill="#F44B87" transform="translate(406,708)"/>
<path d="M0,0 Z " fill="#F6639B" transform="translate(773,707)"/>
<path d="M0,0 Z " fill="#F34A86" transform="translate(405,707)"/>
<path d="M0,0 Z " fill="#F85B93" transform="translate(292,707)"/>
<path d="M0,0 Z " fill="#F66EA4" transform="translate(256,707)"/>
<path d="M0,0 Z " fill="#E74D85" transform="translate(122,707)"/>
<path d="M0,0 Z " fill="#F46199" transform="translate(774,706)"/>
<path d="M0,0 Z " fill="#F6679F" transform="translate(711,706)"/>
<path d="M0,0 Z " fill="#F86199" transform="translate(772,704)"/>
<path d="M0,0 Z " fill="#EC4B87" transform="translate(517,704)"/>
<path d="M0,0 Z " fill="#EB4F85" transform="translate(514,704)"/>
<path d="M0,0 Z " fill="#F04786" transform="translate(425,704)"/>
<path d="M0,0 Z " fill="#F75893" transform="translate(294,704)"/>
<path d="M0,0 Z " fill="#E64C86" transform="translate(123,704)"/>
<path d="M0,0 Z " fill="#FA5C98" transform="translate(684,703)"/>
<path d="M0,0 Z " fill="#F65B97" transform="translate(680,703)"/>
<path d="M0,0 Z " fill="#F54485" transform="translate(637,703)"/>
<path d="M0,0 Z " fill="#F64684" transform="translate(534,703)"/>
<path d="M0,0 Z " fill="#F14180" transform="translate(438,703)"/>
<path d="M0,0 Z " fill="#F54E8B" transform="translate(342,703)"/>
<path d="M0,0 Z " fill="#F66297" transform="translate(213,703)"/>
<path d="M0,0 Z " fill="#F7578F" transform="translate(699,702)"/>
<path d="M0,0 Z " fill="#F55993" transform="translate(697,701)"/>
<path d="M0,0 Z " fill="#F55696" transform="translate(680,701)"/>
<path d="M0,0 Z " fill="#F53D82" transform="translate(593,701)"/>
<path d="M0,0 Z " fill="#F43F82" transform="translate(583,701)"/>
<path d="M0,0 Z " fill="#F13C80" transform="translate(438,701)"/>
<path d="M0,0 Z " fill="#F64686" transform="translate(526,700)"/>
<path d="M0,0 Z " fill="#F65490" transform="translate(700,699)"/>
<path d="M0,0 Z " fill="#F55694" transform="translate(680,699)"/>
<path d="M0,0 Z " fill="#F64688" transform="translate(342,699)"/>
<path d="M0,0 Z " fill="#F44686" transform="translate(405,698)"/>
<path d="M0,0 Z " fill="#F75B95" transform="translate(211,698)"/>
<path d="M0,0 Z " fill="#F75E99" transform="translate(209,698)"/>
<path d="M0,0 Z " fill="#F3508B" transform="translate(819,697)"/>
<path d="M0,0 Z " fill="#F24E89" transform="translate(520,697)"/>
<path d="M0,0 Z " fill="#EF4A85" transform="translate(461,697)"/>
<path d="M0,0 Z " fill="#F4558F" transform="translate(682,696)"/>
<path d="M0,0 Z " fill="#F44584" transform="translate(551,696)"/>
<path d="M0,0 Z " fill="#F34182" transform="translate(425,696)"/>
<path d="M0,0 Z " fill="#F35D96" transform="translate(211,696)"/>
<path d="M0,0 Z " fill="#E04C83" transform="translate(855,695)"/>
<path d="M0,0 Z " fill="#F44E8A" transform="translate(695,695)"/>
<path d="M0,0 Z " fill="#F34583" transform="translate(517,695)"/>
<path d="M0,0 Z " fill="#F04586" transform="translate(368,695)"/>
<path d="M0,0 Z " fill="#F25591" transform="translate(208,695)"/>
<path d="M0,0 Z " fill="#F14887" transform="translate(158,695)"/>
<path d="M0,0 Z " fill="#F24183" transform="translate(604,694)"/>
<path d="M0,0 Z " fill="#F44783" transform="translate(516,694)"/>
<path d="M0,0 Z " fill="#F84788" transform="translate(223,694)"/>
<path d="M0,0 Z " fill="#F25490" transform="translate(210,694)"/>
<path d="M0,0 Z " fill="#EF4686" transform="translate(157,694)"/>
<path d="M0,0 Z " fill="#F44E89" transform="translate(819,693)"/>
<path d="M0,0 Z " fill="#F64E8A" transform="translate(801,693)"/>
<path d="M0,0 Z " fill="#F54D8C" transform="translate(681,693)"/>
<path d="M0,0 Z " fill="#F45490" transform="translate(209,693)"/>
<path d="M0,0 Z " fill="#E24681" transform="translate(855,692)"/>
<path d="M0,0 Z " fill="#F44887" transform="translate(514,692)"/>
<path d="M0,0 Z " fill="#F24D89" transform="translate(804,691)"/>
<path d="M0,0 Z " fill="#F54D8B" transform="translate(801,691)"/>
<path d="M0,0 Z " fill="#F54D8A" transform="translate(796,691)"/>
<path d="M0,0 Z " fill="#F44589" transform="translate(694,691)"/>
<path d="M0,0 Z " fill="#F63F80" transform="translate(543,691)"/>
<path d="M0,0 Z " fill="#F64185" transform="translate(342,691)"/>
<path d="M0,0 Z " fill="#EF4483" transform="translate(156,691)"/>
<path d="M0,0 Z " fill="#F54886" transform="translate(693,690)"/>
<path d="M0,0 Z " fill="#F43F80" transform="translate(539,690)"/>
<path d="M0,0 Z " fill="#F53D84" transform="translate(425,690)"/>
<path d="M0,0 Z " fill="#F74A8D" transform="translate(257,690)"/>
<path d="M0,0 Z " fill="#F34F8C" transform="translate(680,689)"/>
<path d="M0,0 Z " fill="#F24383" transform="translate(601,689)"/>
<path d="M0,0 Z " fill="#F23D7F" transform="translate(582,689)"/>
<path d="M0,0 Z " fill="#F14E85" transform="translate(704,688)"/>
<path d="M0,0 Z " fill="#F23D81" transform="translate(425,688)"/>
<path d="M0,0 Z " fill="#F63C81" transform="translate(393,688)"/>
<path d="M0,0 Z " fill="#F63981" transform="translate(381,688)"/>
<path d="M0,0 Z " fill="#F24283" transform="translate(329,688)"/>
<path d="M0,0 Z " fill="#F64681" transform="translate(232,688)"/>
<path d="M0,0 Z " fill="#F64586" transform="translate(291,687)"/>
<path d="M0,0 Z " fill="#F34282" transform="translate(271,687)"/>
<path d="M0,0 Z " fill="#F63E80" transform="translate(142,687)"/>
<path d="M0,0 Z " fill="#F74786" transform="translate(793,685)"/>
<path d="M0,0 Z " fill="#F75792" transform="translate(731,685)"/>
<path d="M0,0 Z " fill="#EE4281" transform="translate(130,685)"/>
<path d="M0,0 Z " fill="#F63981" transform="translate(425,684)"/>
<path d="M0,0 Z " fill="#F64084" transform="translate(397,684)"/>
<path d="M0,0 Z " fill="#F54286" transform="translate(290,684)"/>
<path d="M0,0 Z " fill="#F64385" transform="translate(291,683)"/>
<path d="M0,0 Z " fill="#F34784" transform="translate(819,682)"/>
<path d="M0,0 Z " fill="#F64D8E" transform="translate(775,682)"/>
<path d="M0,0 Z " fill="#F24C8C" transform="translate(705,682)"/>
<path d="M0,0 Z " fill="#F63C80" transform="translate(410,681)"/>
<path d="M0,0 Z " fill="#F84487" transform="translate(288,681)"/>
<path d="M0,0 Z " fill="#F94084" transform="translate(234,681)"/>
<path d="M0,0 Z " fill="#F33E83" transform="translate(513,680)"/>
<path d="M0,0 Z " fill="#F24789" transform="translate(676,679)"/>
<path d="M0,0 Z " fill="#F64384" transform="translate(303,679)"/>
<path d="M0,0 Z " fill="#F53F87" transform="translate(313,678)"/>
<path d="M0,0 Z " fill="#F33A7B" transform="translate(151,677)"/>
<path d="M0,0 Z " fill="#F24686" transform="translate(675,676)"/>
<path d="M0,0 Z " fill="#F64082" transform="translate(301,676)"/>
<path d="M0,0 Z " fill="#F33C84" transform="translate(516,675)"/>
<path d="M0,0 Z " fill="#F64086" transform="translate(264,675)"/>
<path d="M0,0 Z " fill="#F24585" transform="translate(674,674)"/>
<path d="M0,0 Z " fill="#F33B80" transform="translate(607,674)"/>
<path d="M0,0 Z " fill="#F53F83" transform="translate(515,674)"/>
<path d="M0,0 Z " fill="#F53D7F" transform="translate(358,674)"/>
<path d="M0,0 Z " fill="#F34C8A" transform="translate(706,673)"/>
<path d="M0,0 Z " fill="#F23D82" transform="translate(514,673)"/>
<path d="M0,0 Z " fill="#EC4381" transform="translate(797,672)"/>
<path d="M0,0 Z " fill="#EC5189" transform="translate(770,672)"/>
<path d="M0,0 Z " fill="#F04484" transform="translate(673,672)"/>
<path d="M0,0 Z " fill="#F63F80" transform="translate(518,672)"/>
<path d="M0,0 Z " fill="#ED4584" transform="translate(818,671)"/>
<path d="M0,0 Z " fill="#F24184" transform="translate(149,671)"/>
<path d="M0,0 Z " fill="#F14885" transform="translate(791,669)"/>
<path d="M0,0 Z " fill="#EC3E80" transform="translate(137,669)"/>
<path d="M0,0 Z " fill="#EF4B89" transform="translate(788,668)"/>
<path d="M0,0 Z " fill="#F04B88" transform="translate(781,668)"/>
<path d="M0,0 Z " fill="#F53982" transform="translate(532,668)"/>
<path d="M0,0 Z " fill="#F33C82" transform="translate(375,668)"/>
<path d="M0,0 Z " fill="#FC2B7E" transform="translate(480,639)"/>
<path d="M0,0 Z " fill="#EB367B" transform="translate(120,638)"/>
<path d="M0,0 Z " fill="#FC2E7B" transform="translate(569,637)"/>
<path d="M0,0 Z " fill="#FF2B7F" transform="translate(505,637)"/>
<path d="M0,0 Z " fill="#FE2C7E" transform="translate(489,637)"/>
<path d="M0,0 Z " fill="#FE2B7E" transform="translate(481,637)"/>
<path d="M0,0 Z " fill="#FC2C7D" transform="translate(473,637)"/>
<path d="M0,0 Z " fill="#FB2A7C" transform="translate(471,637)"/>
<path d="M0,0 Z " fill="#FD2B7D" transform="translate(465,637)"/>
<path d="M0,0 Z " fill="#FD2B7E" transform="translate(441,637)"/>
<path d="M0,0 Z " fill="#FB2E7E" transform="translate(433,637)"/>
<path d="M0,0 Z " fill="#FE2C7F" transform="translate(316,637)"/>
<path d="M0,0 Z " fill="#FC297C" transform="translate(311,637)"/>
<path d="M0,0 Z " fill="#FD2B7E" transform="translate(303,637)"/>
<path d="M0,0 Z " fill="#FF2D80" transform="translate(297,637)"/>
<path d="M0,0 Z " fill="#FE2D7F" transform="translate(284,637)"/>
<path d="M0,0 Z " fill="#FE2D7F" transform="translate(281,637)"/>
<path d="M0,0 Z " fill="#FE2D80" transform="translate(273,637)"/>
<path d="M0,0 Z " fill="#FD2D7E" transform="translate(271,637)"/>
<path d="M0,0 Z " fill="#FD2F7D" transform="translate(268,637)"/>
<path d="M0,0 Z " fill="#FD2E80" transform="translate(266,637)"/>
<path d="M0,0 Z " fill="#F92F7E" transform="translate(218,637)"/>
<path d="M0,0 Z " fill="#FC2D7F" transform="translate(199,637)"/>
<path d="M0,0 Z " fill="#FD2E80" transform="translate(169,637)"/>
<path d="M0,0 Z " fill="#F82D7C" transform="translate(143,637)"/>
<path d="M0,0 Z " fill="#F82D7C" transform="translate(137,637)"/>
<path d="M0,0 Z " fill="#F7307C" transform="translate(129,637)"/>
<path d="M0,0 Z " fill="#ED357C" transform="translate(121,637)"/>
<path d="M0,0 Z " fill="#F72E7C" transform="translate(425,623)"/>
<path d="M0,0 Z " fill="#EE317A" transform="translate(120,617)"/>
<path d="M0,0 Z " fill="#F72877" transform="translate(223,616)"/>
<path d="M0,0 Z " fill="#F42B7A" transform="translate(223,613)"/>
<path d="M0,0 Z " fill="#F82E7B" transform="translate(364,608)"/>
<path d="M0,0 Z " fill="#F23179" transform="translate(122,606)"/>
<path d="M0,0 Z " fill="#F72B7C" transform="translate(580,602)"/>
<path d="M0,0 Z " fill="#FA297A" transform="translate(260,593)"/>
<path d="M0,0 Z " fill="#FA2C7B" transform="translate(420,588)"/>
<path d="M0,0 Z " fill="#FA2D7B" transform="translate(419,584)"/>
<path d="M0,0 Z " fill="#E3347C" transform="translate(861,583)"/>
<path d="M0,0 Z " fill="#F43B84" transform="translate(772,583)"/>
<path d="M0,0 Z " fill="#F23B85" transform="translate(750,583)"/>
<path d="M0,0 Z " fill="#F72A79" transform="translate(582,583)"/>
<path d="M0,0 Z " fill="#FB2979" transform="translate(259,583)"/>
<path d="M0,0 Z " fill="#E4337B" transform="translate(862,582)"/>
<path d="M0,0 Z " fill="#F62A7C" transform="translate(583,581)"/>
<path d="M0,0 Z " fill="#F92A7C" transform="translate(417,581)"/>
<path d="M0,0 Z " fill="#F73784" transform="translate(747,580)"/>
<path d="M0,0 Z " fill="#FA2C7A" transform="translate(418,577)"/>
<path d="M0,0 Z " fill="#F32977" transform="translate(583,575)"/>
<path d="M0,0 Z " fill="#F53080" transform="translate(668,572)"/>
<path d="M0,0 Z " fill="#FB277C" transform="translate(258,572)"/>
<path d="M0,0 Z " fill="#F2327D" transform="translate(677,570)"/>
<path d="M0,0 Z " fill="#F82B7D" transform="translate(417,570)"/>
<path d="M0,0 Z " fill="#F7307E" transform="translate(664,569)"/>
<path d="M0,0 Z " fill="#F92B7C" transform="translate(417,568)"/>
<path d="M0,0 Z " fill="#F52E7B" transform="translate(662,567)"/>
<path d="M0,0 Z " fill="#F52C79" transform="translate(661,566)"/>
<path d="M0,0 Z " fill="#F72F7A" transform="translate(660,565)"/>
<path d="M0,0 Z " fill="#F72D7E" transform="translate(656,561)"/>
<path d="M0,0 Z " fill="#F72E7E" transform="translate(654,559)"/>
<path d="M0,0 Z " fill="#F72D7D" transform="translate(652,558)"/>
<path d="M0,0 Z " fill="#F22E7B" transform="translate(129,554)"/>
<path d="M0,0 Z " fill="#ED2B7B" transform="translate(894,545)"/>
<path d="M0,0 Z " fill="#F92B7B" transform="translate(859,541)"/>
<path d="M0,0 Z " fill="#F92A7A" transform="translate(641,541)"/>
<path d="M0,0 Z " fill="#FB297B" transform="translate(588,541)"/>
<path d="M0,0 Z " fill="#F42C75" transform="translate(131,541)"/>
<path d="M0,0 Z " fill="#F7287A" transform="translate(640,539)"/>
<path d="M0,0 Z " fill="#F92A7C" transform="translate(859,535)"/>
<path d="M0,0 Z " fill="#F92B7C" transform="translate(589,535)"/>
<path d="M0,0 Z " fill="#FC2D7D" transform="translate(412,534)"/>
<path d="M0,0 Z " fill="#F32F7A" transform="translate(132,531)"/>
<path d="M0,0 Z " fill="#F8297A" transform="translate(741,525)"/>
<path d="M0,0 Z " fill="#F92A7A" transform="translate(351,524)"/>
<path d="M0,0 Z " fill="#FB2C7B" transform="translate(351,522)"/>
<path d="M0,0 Z " fill="#F8297B" transform="translate(741,521)"/>
<path d="M0,0 Z " fill="#F52E7D" transform="translate(774,519)"/>
<path d="M0,0 Z " fill="#F72878" transform="translate(671,519)"/>
<path d="M0,0 Z " fill="#F92B79" transform="translate(350,519)"/>
<path d="M0,0 Z " fill="#FC267B" transform="translate(695,517)"/>
<path d="M0,0 Z " fill="#FB2579" transform="translate(687,517)"/>
<path d="M0,0 Z " fill="#FA257A" transform="translate(683,517)"/>
<path d="M0,0 Z " fill="#FC257B" transform="translate(681,517)"/>
<path d="M0,0 Z " fill="#FC2479" transform="translate(679,517)"/>
<path d="M0,0 Z " fill="#F92A7B" transform="translate(858,510)"/>
<path d="M0,0 Z " fill="#FC2A7B" transform="translate(624,507)"/>
<path d="M0,0 Z " fill="#F32C75" transform="translate(136,505)"/>
<path d="M0,0 Z " fill="#FB2B7E" transform="translate(857,504)"/>
<path d="M0,0 Z " fill="#F62B7B" transform="translate(759,499)"/>
<path d="M0,0 Z " fill="#FA2A7B" transform="translate(620,494)"/>
<path d="M0,0 Z " fill="#FB2A7C" transform="translate(619,491)"/>
<path d="M0,0 Z " fill="#F7287A" transform="translate(230,490)"/>
<path d="M0,0 Z " fill="#FB277B" transform="translate(619,489)"/>
<path d="M0,0 Z " fill="#F22C78" transform="translate(138,489)"/>
<path d="M0,0 Z " fill="#FB2C7D" transform="translate(852,486)"/>
<path d="M0,0 Z " fill="#FB2C7C" transform="translate(405,486)"/>
<path d="M0,0 Z " fill="#EE2B77" transform="translate(919,485)"/>
<path d="M0,0 Z " fill="#FB2B7B" transform="translate(404,481)"/>
<path d="M0,0 Z " fill="#FA297B" transform="translate(617,480)"/>
<path d="M0,0 Z " fill="#FC297C" transform="translate(849,479)"/>
<path d="M0,0 Z " fill="#FB2A7C" transform="translate(596,478)"/>
<path d="M0,0 Z " fill="#FB2979" transform="translate(253,478)"/>
<path d="M0,0 Z " fill="#F52671" transform="translate(499,476)"/>
<path d="M0,0 Z " fill="#FD2879" transform="translate(848,475)"/>
<path d="M0,0 Z " fill="#F22C79" transform="translate(140,474)"/>
<path d="M0,0 Z " fill="#F62B79" transform="translate(343,473)"/>
<path d="M0,0 Z " fill="#F92877" transform="translate(499,471)"/>
<path d="M0,0 Z " fill="#FA2A7E" transform="translate(844,468)"/>
<path d="M0,0 Z " fill="#FC2B7B" transform="translate(402,467)"/>
<path d="M0,0 Z " fill="#FA2A7D" transform="translate(401,466)"/>
<path d="M0,0 Z " fill="#FB2978" transform="translate(402,465)"/>
<path d="M0,0 Z " fill="#F92778" transform="translate(252,465)"/>
<path d="M0,0 Z " fill="#F72979" transform="translate(841,463)"/>
<path d="M0,0 Z " fill="#F7297B" transform="translate(598,463)"/>
<path d="M0,0 Z " fill="#F92779" transform="translate(342,463)"/>
<path d="M0,0 Z " fill="#F9277A" transform="translate(500,460)"/>
<path d="M0,0 Z " fill="#FA297B" transform="translate(400,458)"/>
<path d="M0,0 Z " fill="#FA2678" transform="translate(251,456)"/>
<path d="M0,0 Z " fill="#F52B7B" transform="translate(599,455)"/>
<path d="M0,0 Z " fill="#FB2677" transform="translate(500,455)"/>
<path d="M0,0 Z " fill="#F82678" transform="translate(832,451)"/>
<path d="M0,0 Z " fill="#F92679" transform="translate(497,450)"/>
<path d="M0,0 Z " fill="#FB287A" transform="translate(827,446)"/>
<path d="M0,0 Z " fill="#F92679" transform="translate(692,444)"/>
<path d="M0,0 Z " fill="#FA287D" transform="translate(824,443)"/>
<path d="M0,0 Z " fill="#FA287A" transform="translate(690,441)"/>
<path d="M0,0 Z " fill="#FA297A" transform="translate(338,441)"/>
<path d="M0,0 Z " fill="#FB2579" transform="translate(816,436)"/>
<path d="M0,0 Z " fill="#F12C76" transform="translate(919,434)"/>
<path d="M0,0 Z " fill="#F62C7A" transform="translate(146,429)"/>
<path d="M0,0 Z " fill="#FA287A" transform="translate(396,426)"/>
<path d="M0,0 Z " fill="#FB277A" transform="translate(248,426)"/>
<path d="M0,0 Z " fill="#F72979" transform="translate(495,425)"/>
<path d="M0,0 Z " fill="#FB2A7C" transform="translate(395,424)"/>
<path d="M0,0 Z " fill="#F7297D" transform="translate(798,423)"/>
<path d="M0,0 Z " fill="#FB2A7A" transform="translate(619,421)"/>
<path d="M0,0 Z " fill="#FC2B7C" transform="translate(394,416)"/>
<path d="M0,0 Z " fill="#FA287A" transform="translate(494,415)"/>
<path d="M0,0 Z " fill="#FA2B79" transform="translate(334,415)"/>
<path d="M0,0 Z " fill="#F9287A" transform="translate(238,415)"/>
<path d="M0,0 Z " fill="#FA2A7B" transform="translate(778,410)"/>
<path d="M0,0 Z " fill="#FA297B" transform="translate(239,410)"/>
<path d="M0,0 Z " fill="#FB2979" transform="translate(674,409)"/>
<path d="M0,0 Z " fill="#FB277B" transform="translate(605,409)"/>
<path d="M0,0 Z " fill="#FB287A" transform="translate(773,407)"/>
<path d="M0,0 Z " fill="#F52879" transform="translate(239,407)"/>
<path d="M0,0 Z " fill="#FB277B" transform="translate(769,404)"/>
<path d="M0,0 Z " fill="#FA297B" transform="translate(392,403)"/>
<path d="M0,0 Z " fill="#EB2B74" transform="translate(911,402)"/>
<path d="M0,0 Z " fill="#F82779" transform="translate(504,402)"/>
<path d="M0,0 Z " fill="#FA2777" transform="translate(493,402)"/>
<path d="M0,0 Z " fill="#FC2679" transform="translate(493,400)"/>
<path d="M0,0 Z " fill="#F7287A" transform="translate(671,397)"/>
<path d="M0,0 Z " fill="#EB2873" transform="translate(908,394)"/>
<path d="M0,0 Z " fill="#F8287B" transform="translate(670,391)"/>
<path d="M0,0 Z " fill="#F42775" transform="translate(607,391)"/>
<path d="M0,0 Z " fill="#FC277A" transform="translate(505,389)"/>
<path d="M0,0 Z " fill="#FA2A7D" transform="translate(241,389)"/>
<path d="M0,0 Z " fill="#F72879" transform="translate(669,386)"/>
<path d="M0,0 Z " fill="#F92A7C" transform="translate(241,386)"/>
<path d="M0,0 Z " fill="#F22976" transform="translate(152,385)"/>
<path d="M0,0 Z " fill="#EA2A72" transform="translate(903,384)"/>
<path d="M0,0 Z " fill="#F8277B" transform="translate(670,383)"/>
<path d="M0,0 Z " fill="#FC277A" transform="translate(491,378)"/>
<path d="M0,0 Z " fill="#F32B79" transform="translate(153,378)"/>
<path d="M0,0 Z " fill="#ED2A74" transform="translate(899,377)"/>
<path d="M0,0 Z " fill="#F6277B" transform="translate(669,376)"/>
<path d="M0,0 Z " fill="#F72578" transform="translate(740,375)"/>
<path d="M0,0 Z " fill="#FB2B7C" transform="translate(388,374)"/>
<path d="M0,0 Z " fill="#F32977" transform="translate(154,373)"/>
<path d="M0,0 Z " fill="#FB287A" transform="translate(507,372)"/>
<path d="M0,0 Z " fill="#FC287A" transform="translate(388,372)"/>
<path d="M0,0 Z " fill="#FA2B79" transform="translate(243,371)"/>
<path d="M0,0 Z " fill="#FB2579" transform="translate(507,369)"/>
<path d="M0,0 Z " fill="#F72977" transform="translate(327,369)"/>
<path d="M0,0 Z " fill="#F82B7D" transform="translate(243,369)"/>
<path d="M0,0 Z " fill="#FC297E" transform="translate(387,367)"/>
<path d="M0,0 Z " fill="#F92A7E" transform="translate(243,367)"/>
<path d="M0,0 Z " fill="#FB297C" transform="translate(386,366)"/>
<path d="M0,0 Z " fill="#F4297A" transform="translate(836,364)"/>
<path d="M0,0 Z " fill="#F52A7A" transform="translate(804,364)"/>
<path d="M0,0 Z " fill="#F62A7A" transform="translate(796,364)"/>
<path d="M0,0 Z " fill="#F5297A" transform="translate(788,364)"/>
<path d="M0,0 Z " fill="#FC277A" transform="translate(384,363)"/>
<path d="M0,0 Z " fill="#F92879" transform="translate(327,362)"/>
<path d="M0,0 Z " fill="#F72879" transform="translate(669,361)"/>
<path d="M0,0 Z " fill="#FC287B" transform="translate(386,360)"/>
<path d="M0,0 Z " fill="#FC287B" transform="translate(386,358)"/>
<path d="M0,0 Z " fill="#F02977" transform="translate(656,352)"/>
<path d="M0,0 Z " fill="#E92875" transform="translate(878,351)"/>
<path d="M0,0 Z " fill="#F12B79" transform="translate(671,346)"/>
<path d="M0,0 Z " fill="#F42777" transform="translate(774,343)"/>
<path d="M0,0 Z " fill="#F62775" transform="translate(384,342)"/>
<path d="M0,0 Z " fill="#F72678" transform="translate(487,341)"/>
<path d="M0,0 Z " fill="#F32578" transform="translate(736,337)"/>
<path d="M0,0 Z " fill="#F72778" transform="translate(512,330)"/>
<path d="M0,0 Z " fill="#F82877" transform="translate(486,330)"/>
<path d="M0,0 Z " fill="#F8287A" transform="translate(486,327)"/>
<path d="M0,0 Z " fill="#ED2874" transform="translate(739,322)"/>
<path d="M0,0 Z " fill="#F72679" transform="translate(484,316)"/>
<path d="M0,0 Z " fill="#F72877" transform="translate(319,316)"/>
<path d="M0,0 Z " fill="#F92878" transform="translate(514,313)"/>
<path d="M0,0 Z " fill="#F62979" transform="translate(318,311)"/>
<path d="M0,0 Z " fill="#FA2879" transform="translate(378,308)"/>
<path d="M0,0 Z " fill="#F52676" transform="translate(317,304)"/>
<path d="M0,0 Z " fill="#F72A78" transform="translate(482,301)"/>
<path d="M0,0 Z " fill="#F72979" transform="translate(376,292)"/>
<path d="M0,0 Z " fill="#E92772" transform="translate(622,279)"/>
<path d="M0,0 Z " fill="#E2246A" transform="translate(623,270)"/>
<path d="M0,0 Z " fill="#E8276D" transform="translate(373,268)"/>
<path d="M0,0 Z " fill="#DA2468" transform="translate(622,264)"/>
</svg>
